#!OML:ASF H:\MichaelJackson\Top Level 1\Subject 1\Session 1\male.ASF
:FULLY-SPECIFIED
:DEGREES
390
root 4.92347 16.678 -15.9116 12.0194 7.81961 7.89672
lowerback 2.03893 1.57892 -8.94179
upperback 2.94258 2.05819 -0.998596
thorax 1.6408 0.870826 3.95385
lowerneck -12.5932 -5.57243 -0.716088
upperneck 47.296 -9.0008 1.0423
head 21.3407 -3.28633 -1.11468
rclavicle -3.62782e-014 2.3059e-014
rhumerus -15.1404 37.3842 -87.6058
rradius 134.111
rwrist -25.5574
rhand -46.3449 -62.0613
rfingers 7.12502
rthumb -19.0774 -268.854
lclavicle -3.62782e-014 2.3059e-014
lhumerus -74.9352 -11.7871 99.3013
lradius 58.5489
lwrist 14.0344
lhand -9.98443 7.37154
lfingers 7.12502
lthumb 15.9986 36.7309
rfemur -47.2481 -10.1766 11.8889
rtibia 67.5374
rfoot 8.84187 19.2396
rtoes 27.5355
lfemur -18.399 9.44263 -31.6872
ltibia 32.8751
lfoot -21.0085 -15.5086
ltoes 38.0857
391
root 4.92226 16.7179 -15.8845 11.7882 7.51143 7.24299
lowerback 1.8418 1.77003 -8.76064
upperback 3.20808 2.34401 -0.611375
thorax 1.98067 0.990064 4.26215
lowerneck -12.7197 -5.66402 -0.852869
upperneck 47.0257 -9.07095 1.02092
head 21.181 -3.34604 -1.11405
rclavicle 1.74931e-014 1.98785e-014
rhumerus -14.9061 37.2404 -87.1038
rradius 133.883
rwrist -25.8243
rhand -46.4256 -62.2244
rfingers 7.12502
rthumb -19.155 -268.699
lclavicle 1.74931e-014 1.98785e-014
lhumerus -74.8622 -11.6895 99.1473
lradius 58.5268
lwrist 14.1967
lhand -10.0036 7.18035
lfingers 7.12502
lthumb 15.9802 36.5412
rfemur -47.1497 -9.92365 12.5287
rtibia 67.3426
rfoot 9.56127 19.5937
rtoes 26.5838
lfemur -18.1279 8.88779 -30.9856
ltibia 32.7603
lfoot -20.8824 -14.1245
ltoes 36.9746
392
root 4.92086 16.7638 -15.8563 11.5543 7.18053 6.50526
lowerback 1.62486 1.97164 -8.51708
upperback 3.48174 2.64183 -0.177762
thorax 2.33672 1.11517 4.58772
lowerneck -12.8324 -5.75636 -1.00156
upperneck 46.7547 -9.12901 0.982561
head 21.0178 -3.40544 -1.11668
rclavicle -1.86858e-014 -5.56597e-015
rhumerus -14.7183 37.0796 -86.6443
rradius 133.663
rwrist -26.1077
rhand -46.5006 -62.3806
rfingers 7.12502
rthumb -19.2271 -268.55
lclavicle -1.86858e-014 -5.56597e-015
lhumerus -74.8044 -11.5837 99.0139
lradius 58.5338
lwrist 14.362
lhand -9.7122 7.07393
lfingers 7.12502
lthumb 16.2608 36.4121
rfemur -46.9562 -9.56367 13.2415
rtibia 67.0393
rfoot 9.94358 20.0266
rtoes 25.2765
lfemur -17.8806 8.24808 -30.2023
ltibia 32.6997
lfoot -20.6968 -12.5938
ltoes 35.6475
393
root 4.91916 16.8152 -15.8273 11.3369 6.85275 5.69539
lowerback 1.4111 2.17192 -8.20504
upperback 3.74188 2.93149 0.29015
thorax 2.6772 1.23874 4.91383
lowerneck -12.9301 -5.84695 -1.15632
upperneck 46.4955 -9.17462 0.927617
head 20.8598 -3.46296 -1.12353
rclavicle -2.98177e-015 1.59028e-015
rhumerus -14.6062 36.9113 -86.2617
rradius 133.446
rwrist -26.366
rhand -46.5588 -62.4896
rfingers 7.12502
rthumb -19.2831 -268.446
lclavicle -2.98177e-015 1.59028e-015
lhumerus -74.7852 -11.4607 98.883
lradius 58.5735
lwrist 14.5147
lhand -9.15858 7.06182
lfingers 7.12502
lthumb 16.7938 36.3555
rfemur -46.6637 -9.1245 14.0241
rtibia 66.6074
rfoot 9.98227 20.5372
rtoes 23.8909
lfemur -17.7032 7.55904 -29.3512
ltibia 32.7374
lfoot -20.4065 -11.0026
ltoes 34.1571
394
root 4.91683 16.8722 -15.7974 11.1472 6.55981 4.83673
lowerback 1.23355 2.3578 -7.83663
upperback 3.96511 3.19133 0.779214
thorax 2.96289 1.3526 5.23123
lowerneck -13.0095 -5.93253 -1.30762
upperneck 46.2654 -9.20578 0.851875
head 20.7172 -3.51621 -1.13824
rclavicle -4.17448e-015 1.66979e-014
rhumerus -14.6101 36.7513 -85.9967
rradius 133.23
rwrist -26.541
rhand -46.6116 -62.5238
rfingers 7.12502
rthumb -19.3339 -268.417
lclavicle -4.17448e-015 1.66979e-014
lhumerus -74.8338 -11.312 98.7413
lradius 58.6482
lwrist 14.6667
lhand -8.41604 7.09862
lfingers 7.12502
lthumb 17.5085 36.3302
rfemur -46.2593 -8.64323 14.8614
rtibia 66.0254
rfoot 9.63051 21.1056
rtoes 22.4177
lfemur -17.6369 6.86091 -28.4528
ltibia 32.9244
lfoot -19.977 -9.43608
ltoes 32.5589
395
root 4.91344 16.9346 -15.7671 10.9938 6.34239 3.94703
lowerback 1.10112 2.51393 -7.42128
upperback 4.14801 3.40102 1.28291
thorax 3.18877 1.44697 5.5369
lowerneck -13.0736 -6.01063 -1.45517
upperneck 46.0663 -9.22134 0.760293
head 20.5923 -3.56402 -1.15828
rclavicle -6.16232e-015 9.54166e-015
rhumerus -14.7255 36.6109 -85.8503
rradius 133.003
rwrist -26.5956
rhand -46.6518 -62.4723
rfingers 7.12502
rthumb -19.3725 -268.473
lclavicle -6.16232e-015 9.54166e-015
lhumerus -74.9409 -11.1342 98.5812
lradius 58.7528
lwrist 14.8406
lhand -7.56462 7.21805
lfingers 7.12502
lthumb 18.3277 36.3746
rfemur -45.738 -8.15871 15.7447
rtibia 65.2721
rfoot 8.9131 21.6916
rtoes 20.9551
lfemur -17.7246 6.17196 -27.5173
ltibia 33.3173
lfoot -19.3582 -7.98833
ltoes 30.9797
396
root 4.90873 17.0017 -15.7369 10.8856 6.23462 3.04396
lowerback 1.01984 2.62685 -6.95952
upperback 4.28646 3.54369 1.78839
thorax 3.35098 1.51396 5.81604
lowerneck -13.1207 -6.07943 -1.59909
upperneck 45.8973 -9.22376 0.664318
head 20.4846 -3.60603 -1.17832
rclavicle -4.07509e-014 2.62396e-014
rhumerus -14.9412 36.5003 -85.8268
rradius 132.761
rwrist -26.5025
rhand -46.6901 -62.3225
rfingers 7.12502
rthumb -19.4093 -268.626
lclavicle -4.07509e-014 2.62396e-014
lhumerus -75.0919 -10.9272 98.3893
lradius 58.8757
lwrist 15.0504
lhand -6.6875 7.45713
lfingers 7.12502
lthumb 19.1713 36.5322
rfemur -45.1065 -7.70909 16.6656
rtibia 64.3274
rfoot 7.9551 22.2252
rtoes 19.7946
lfemur -18.0196 5.52682 -26.557
ltibia 33.9737
lfoot -18.5393 -6.74561
ltoes 29.4174
397
root 4.90263 17.0732 -15.7074 10.8194 6.26631 2.13198
lowerback 0.982878 2.69238 -6.44777
upperback 4.39104 3.6162 2.29349
thorax 3.46589 1.5511 6.06403
lowerneck -13.1566 -6.14359 -1.7403
upperneck 45.7505 -9.22355 0.573098
head 20.391 -3.64527 -1.19583
rclavicle 1.07344e-014 3.97569e-015
rhumerus -15.2295 36.4103 -85.8997
rradius 132.507
rwrist -26.2847
rhand -46.739 -62.1083
rfingers 7.12502
rthumb -19.4563 -268.845
lclavicle 1.07344e-014 3.97569e-015
lhumerus -75.2565 -10.7078 98.1673
lradius 59.0068
lwrist 15.2947
lhand -5.85106 7.80729
lfingers 7.12502
lthumb 19.9755 36.8006
rfemur -44.3658 -7.32085 17.6272
rtibia 63.1757
rfoot 6.82088 22.6474
rtoes 18.8073
lfemur -18.5619 4.87894 -25.5652
ltibia 34.9492
lfoot -17.4959 -5.69279
ltoes 27.9024
398
root 4.89503 17.1483 -15.679 10.7882 6.45945 1.22391
lowerback 0.985671 2.71052 -5.8908
upperback 4.47109 3.62078 2.79122
thorax 3.54609 1.55855 6.27609
lowerneck -13.1856 -6.20958 -1.87599
upperneck 45.6168 -9.23591 0.497297
head 20.3071 -3.68578 -1.20903
rclavicle 3.26007e-014 4.29375e-014
rhumerus -15.5685 36.3258 -86.0471
rradius 132.254
rwrist -25.9968
rhand -46.8142 -61.8538
rfingers 7.12502
rthumb -19.5286 -269.107
lclavicle 3.26007e-014 4.29375e-014
lhumerus -75.407 -10.4971 97.9094
lradius 59.1349
lwrist 15.5594
lhand -5.08062 8.28423
lfingers 7.12502
lthumb 20.716 37.1985
rfemur -43.5193 -7.01571 18.6209
rtibia 61.8092
rfoot 5.54055 22.8743
rtoes 17.7967
lfemur -19.3808 4.18655 -24.5454
ltibia 36.2904
lfoot -16.2012 -4.81741
ltoes 26.5028
399
root 4.88602 17.2252 -15.6521 10.7854 6.82145 0.324571
lowerback 1.01061 2.68519 -5.28544
upperback 4.54118 3.56507 3.27721
thorax 3.61613 1.53883 6.44692
lowerneck -13.2184 -6.2827 -2.00506
upperneck 45.4847 -9.27193 0.444637
head 20.2288 -3.73067 -1.21675
rclavicle -2.10712e-014 -3.49861e-014
rhumerus -15.924 36.239 -86.2367
rradius 132.029
rwrist -25.7201
rhand -46.9434 -61.6387
rfingers 7.12502
rthumb -19.6528 -269.335
lclavicle -2.10712e-014 -3.49861e-014
lhumerus -75.5109 -10.315 97.6121
lradius 59.2522
lwrist 15.8149
lhand -4.39119 8.83025
lfingers 7.12502
lthumb 21.3783 37.6709
rfemur -42.5818 -6.80077 19.6437
rtibia 60.233
rfoot 4.22611 22.8555
rtoes 16.794
lfemur -20.5044 3.45396 -23.4986
ltibia 38.0218
lfoot -14.5994 -4.1224
ltoes 25.37
400
root 4.87591 17.3018 -15.6269 10.802 7.34767 -0.559116
lowerback 1.05396 2.62317 -4.6275
upperback 4.60564 3.45921 3.74192
thorax 3.68158 1.49697 6.56411
lowerneck -13.2604 -6.36846 -2.12619
upperneck 45.3441 -9.34437 0.425101
head 20.1515 -3.78355 -1.21686
rclavicle 7.43455e-014 3.65764e-014
rhumerus -16.2814 36.125 -86.4507
rradius 131.843
rwrist -25.4906
rhand -47.0846 -61.4353
rfingers 7.12502
rthumb -19.7887 -269.552
lclavicle 7.43455e-014 3.65764e-014
lhumerus -75.5635 -10.1806 97.2673
lradius 59.3646
lwrist 16.0349
lhand -3.77997 9.39579
lfingers 7.12502
lthumb 21.9652 38.1687
rfemur -41.5656 -6.67178 20.6841
rtibia 58.4612
rfoot 2.94686 22.5379
rtoes 15.7994
lfemur -21.9407 2.65157 -22.4298
ltibia 40.1353
lfoot -12.6343 -3.58027
ltoes 24.7738
401
root 4.8653 17.3752 -15.6031 10.8287 8.01052 -1.42383
lowerback 1.09065 2.54332 -3.91929
upperback 4.67683 3.32973 4.18175
thorax 3.7652 1.44519 6.6269
lowerneck -13.3156 -6.47711 -2.23265
upperneck 45.1799 -9.4688 0.436008
head 20.0655 -3.84991 -1.21475
rclavicle 4.29375e-014 2.22639e-014
rhumerus -16.6152 35.9557 -86.6487
rradius 131.722
rwrist -25.3783
rhand -47.2263 -61.2737
rfingers 7.12502
rthumb -19.9248 -269.728
lclavicle 4.29375e-014 2.22639e-014
lhumerus -75.557 -10.127 96.8874
lradius 59.4817
lwrist 16.2099
lhand -3.23664 9.91064
lfingers 7.12502
lthumb 22.4868 38.6214
rfemur -40.4887 -6.60986 21.7297
rtibia 56.5186
rfoot 1.70864 21.8787
rtoes 14.6005
lfemur -23.6773 1.78609 -21.3478
ltibia 42.5842
lfoot -10.2792 -3.14541
ltoes 24.9413
402
root 4.85456 17.4426 -15.5798 10.852 8.77531 -2.26681
lowerback 1.1206 2.45812 -3.16735
upperback 4.75114 3.19318 4.59301
thorax 3.86018 1.39219 6.63487
lowerneck -13.3735 -6.60968 -2.32066
upperneck 44.9867 -9.64397 0.469863
head 19.9633 -3.93023 -1.21389
rclavicle -4.53229e-014 -2.38542e-015
rhumerus -16.9284 35.7244 -86.8216
rradius 131.688
rwrist -25.4318
rhand -47.3596 -61.1799
rfingers 7.12502
rthumb -20.053 -269.835
lclavicle -4.53229e-014 -2.38542e-015
lhumerus -75.5191 -10.1573 96.478
lradius 59.622
lwrist 16.3513
lhand -2.77931 10.3391
lfingers 7.12502
lthumb 22.9257 38.9961
rfemur -39.3555 -6.58923 22.7675
rtibia 54.4307
rfoot 0.548836 20.8868
rtoes 13.1848
lfemur -25.6689 0.877818 -20.2631
ltibia 45.2759
lfoot -7.54387 -2.79425
ltoes 26.2256
